<svg width="334" height="341" viewBox="0 0 334 341" fill="none" xmlns="http://www.w3.org/2000/svg">
<path d="M104.375 151.319C128.586 151.319 148.212 131.281 148.212 106.562C148.212 81.8442 128.586 61.8062 104.375 61.8062C80.1641 61.8062 60.5374 81.8442 60.5374 106.562C60.5374 131.281 80.1641 151.319 104.375 151.319Z" fill="#FFCE31"/>
<path d="M122.119 54.3469L104.375 10.6562L86.6311 54.3469C92.3717 53.2812 98.1123 52.7484 104.375 52.7484C110.637 52.7484 116.378 53.2812 122.119 54.3469Z" fill="#FFCE31"/>
<path d="M86.6311 158.778L104.375 202.469L122.119 158.778C116.378 159.844 110.637 160.377 104.375 160.377C98.1123 160.377 92.3717 159.844 86.6311 158.778Z" fill="#FFCE31"/>
<path d="M155.519 124.678L198.313 106.562L155.519 88.4468C156.563 94.3077 157.085 100.169 157.085 106.562C157.085 112.956 156.563 118.817 155.519 124.678Z" fill="#FFCE31"/>
<path d="M53.2313 88.4468L10.4375 106.562L53.2313 124.678C52.1875 118.817 51.6656 112.956 51.6656 106.562C51.6656 100.169 52.1875 94.3077 53.2313 88.4468Z" fill="#FFCE31"/>
<path d="M152.909 82.5861L170.653 38.8955L127.859 57.0111C132.556 60.208 137.253 63.9377 141.428 68.733C146.125 72.9955 149.778 77.7908 152.909 82.5861Z" fill="#FFCE31"/>
<path d="M55.8408 130.539L38.097 174.23L80.8908 156.114C76.1939 152.917 71.497 149.188 67.322 144.392C62.6252 140.13 58.972 135.867 55.8408 130.539Z" fill="#FFCE31"/>
<path d="M127.859 156.114L170.653 174.23L152.909 130.539C149.778 135.334 146.125 140.13 141.428 144.392C137.253 149.188 133.078 152.917 127.859 156.114Z" fill="#FFCE31"/>
<path d="M80.8908 57.0111L38.097 38.8955L55.8408 82.5861C58.972 77.7908 62.6252 72.9955 67.322 68.733C71.497 63.9377 76.1939 60.208 80.8908 57.0111Z" fill="#FFCE31"/>
<path d="M125.25 178.492C121.075 178.492 116.378 177.959 112.203 176.361C95.503 170.5 84.0217 154.516 84.0217 136.4C84.0217 124.145 89.2405 112.956 98.1124 104.964C100.2 102.833 102.809 101.234 105.419 99.6358L108.028 90.0452C114.812 66.0686 136.731 49.0187 161.781 49.0187C164.39 49.0187 167 49.0187 169.609 49.5515C171.697 50.0843 174.306 50.6171 176.394 51.1499L177.437 49.0187C187.353 30.903 206.662 19.1812 227.016 19.1812C258.328 19.1812 283.9 44.7561 283.9 76.7249V82.5858C286.509 83.6515 288.597 84.7171 290.684 85.7827C305.819 94.8405 315.212 111.358 315.212 128.941C315.212 152.384 299.556 172.098 277.116 177.426C273.462 178.492 269.809 178.492 266.156 178.492H125.25Z" fill="white"/>
<path d="M227.538 27.1734C254.153 27.1734 276.072 49.0188 276.072 76.1922V79.9219C265.113 80.9875 254.675 85.25 246.847 92.1766C252.588 88.4469 259.894 86.8484 267.2 86.8484C269.809 86.8484 272.419 87.3812 275.028 87.3812C279.203 88.4469 283.378 90.0453 287.553 92.1766C299.556 99.1031 307.906 112.423 307.906 127.875C307.906 147.589 294.338 164.106 276.594 167.836C273.463 168.369 270.853 168.902 267.722 168.902H125.25C121.597 168.902 117.944 168.369 114.813 167.303C101.766 163.041 92.372 150.253 92.372 135.334C92.372 125.211 96.547 116.153 103.853 110.292C106.985 107.628 110.638 105.497 114.813 103.898C118.466 102.833 122.119 101.767 125.772 101.767C136.21 101.767 146.125 107.095 151.866 115.088H152.388C145.603 101.767 132.035 92.7094 116.9 91.1109C122.641 70.8641 140.906 55.9453 162.825 55.9453C164.913 55.9453 167.522 55.9453 169.609 56.4781C173.785 57.0109 178.481 58.6094 182.134 60.2078C196.747 66.6016 207.706 80.9875 209.794 97.5047V96.9719C209.794 77.7906 200.4 61.2734 185.788 51.6828C193.094 37.8297 209.272 27.1734 227.538 27.1734ZM227.538 10.6562C205.097 10.6562 184.744 22.3781 172.741 41.0266H171.175C167.522 40.4937 164.913 40.4937 161.781 40.4937C133.078 40.4937 108.028 59.675 100.2 87.9141L98.1126 94.3078C96.0251 95.3734 93.9376 96.9719 92.372 98.5703C81.4127 108.161 75.1501 122.014 75.1501 136.4C75.1501 158.245 88.7189 177.427 109.072 184.353C114.291 185.952 119.51 187.017 124.728 187.017H266.156C270.331 187.017 274.506 186.484 279.203 185.419C305.297 179.558 323.563 156.114 323.563 128.941C323.563 108.161 312.603 88.9797 294.859 78.8563C293.816 78.3234 293.294 77.7906 292.25 77.2578V76.725C292.25 40.4937 263.025 10.6562 227.538 10.6562Z" fill="#B6C1D1"/>
<path d="M150.3 245.094C147.169 253.619 149.778 262.144 156.041 264.275C162.303 266.406 169.609 261.611 172.741 253.086C176.394 243.495 176.394 229.642 174.306 214.19C162.303 224.847 153.431 235.503 150.3 245.094Z" fill="#75D6FF"/>
<path d="M218.665 253.618C222.318 244.028 222.318 230.175 220.231 214.723C208.75 224.847 200.4 235.503 196.746 245.626C193.615 254.151 196.225 262.676 202.487 264.808C208.75 266.939 215.534 261.611 218.665 253.618Z" fill="#75D6FF"/>
<path d="M266.156 214.723C254.675 224.847 246.325 235.503 242.672 245.626C239.54 254.151 242.15 262.676 248.412 264.807C254.675 266.939 261.981 262.143 265.112 253.618C268.244 243.495 268.244 230.175 266.156 214.723Z" fill="#75D6FF"/>
<path d="M103.853 245.094C100.722 253.619 103.331 262.144 109.594 264.275C115.856 266.406 123.162 261.611 126.294 253.086C129.947 243.495 129.947 229.642 127.859 214.19C115.856 224.847 107.506 235.503 103.853 245.094Z" fill="#75D6FF"/>
</svg>
